                                                                        S0000001
,,31HOpen CASCADE IGES processor 7.8,13HFilename.iges,                  G0000001
16HOpen CASCADE 7.8,31HOpen CASCADE IGES processor 7.8,32,308,15,308,15,G0000002
,1.,2,2HMM,1,0.01,15H20260929.123757,1E-07,20.,8Hdschroer,,11,0,        G0000003
15H20260929.123757,;                                                    G0000004
     402       1       0       0       0       0       0       000000000D0000001
     402       0       0       1       1                               0D0000002
     144       2       0       0       0       0       0       000020000D0000003
     144       0       0       1       0                               0D0000004
     108       3       0       0       0       0       0       000010000D0000005
     108       0       0       1       0                               0D0000006
     142       4       0       0       0       0       0       000010500D0000007
     142       0       0       1       0                               0D0000008
     102       5       0       0       0       0       0       000010000D0000009
     102       0       0       1       0                               0D0000010
     110       6       0       0       0       0       0       000010000D0000011
     110       0       0       1       0                               0D0000012
     110       7       0       0       0       0       0       000010000D0000013
     110       0       0       1       0                               0D0000014
     110       8       0       0       0       0       0       000010000D0000015
     110       0       0       1       0                               0D0000016
     110       9       0       0       0       0       0       000010000D0000017
     110       0       0       1       0                               0D0000018
     144      10       0       0       0       0       0       000020000D0000019
     144       0       0       1       0                               0D0000020
     108      11       0       0       0       0       0       000010000D0000021
     108       0       0       1       0                               0D0000022
     142      12       0       0       0       0       0       000010500D0000023
     142       0       0       1       0                               0D0000024
     102      13       0       0       0       0       0       000010000D0000025
     102       0       0       1       0                               0D0000026
     110      14       0       0       0       0       0       000010000D0000027
     110       0       0       1       0                               0D0000028
     110      15       0       0       0       0       0       000010000D0000029
     110       0       0       1       0                               0D0000030
     110      16       0       0       0       0       0       000010000D0000031
     110       0       0       1       0                               0D0000032
     110      17       0       0       0       0       0       000010000D0000033
     110       0       0       1       0                               0D0000034
     110      18       0       0       0       0       0       000010000D0000035
     110       0       0       1       0                               0D0000036
     110      19       0       0       0       0       0       000010000D0000037
     110       0       0       1       0                               0D0000038
     144      20       0       0       0       0       0       000020000D0000039
     144       0       0       1       0                               0D0000040
     108      21       0       0       0       0       0       000010000D0000041
     108       0       0       1       0                               0D0000042
     142      22       0       0       0       0       0       000010500D0000043
     142       0       0       1       0                               0D0000044
     102      23       0       0       0       0       0       000010000D0000045
     102       0       0       1       0                               0D0000046
     110      24       0       0       0       0       0       000010000D0000047
     110       0       0       1       0                               0D0000048
     110      25       0       0       0       0       0       000010000D0000049
     110       0       0       1       0                               0D0000050
     110      26       0       0       0       0       0       000010000D0000051
     110       0       0       1       0                               0D0000052
     110      27       0       0       0       0       0       000010000D0000053
     110       0       0       1       0                               0D0000054
     144      28       0       0       0       0       0       000020000D0000055
     144       0       0       1       0                               0D0000056
     108      29       0       0       0       0       0       000010000D0000057
     108       0       0       1       0                               0D0000058
     142      30       0       0       0       0       0       000010500D0000059
     142       0       0       1       0                               0D0000060
     102      31       0       0       0       0       0       000010000D0000061
     102       0       0       1       0                               0D0000062
     110      32       0       0       0       0       0       000010000D0000063
     110       0       0       1       0                               0D0000064
     110      33       0       0       0       0       0       000010000D0000065
     110       0       0       1       0                               0D0000066
     110      34       0       0       0       0       0       000010000D0000067
     110       0       0       1       0                               0D0000068
     110      35       0       0       0       0       0       000010000D0000069
     110       0       0       1       0                               0D0000070
     110      36       0       0       0       0       0       000010000D0000071
     110       0       0       1       0                               0D0000072
     110      37       0       0       0       0       0       000010000D0000073
     110       0       0       1       0                               0D0000074
     144      38       0       0       0       0       0       000020000D0000075
     144       0       0       1       0                               0D0000076
     108      39       0       0       0       0       0       000010000D0000077
     108       0       0       1       0                               0D0000078
     142      40       0       0       0       0       0       000010500D0000079
     142       0       0       1       0                               0D0000080
     102      41       0       0       0       0       0       000010000D0000081
     102       0       0       1       0                               0D0000082
     110      42       0       0       0       0       0       000010000D0000083
     110       0       0       1       0                               0D0000084
     110      43       0       0       0       0       0       000010000D0000085
     110       0       0       1       0                               0D0000086
     110      44       0       0       0       0       0       000010000D0000087
     110       0       0       1       0                               0D0000088
     110      45       0       0       0       0       0       000010000D0000089
     110       0       0       1       0                               0D0000090
     144      46       0       0       0       0       0       000020000D0000091
     144       0       0       1       0                               0D0000092
     108      47       0       0       0       0       0       000010000D0000093
     108       0       0       1       0                               0D0000094
     142      48       0       0       0       0       0       000010500D0000095
     142       0       0       1       0                               0D0000096
     102      49       0       0       0       0       0       000010000D0000097
     102       0       0       1       0                               0D0000098
     110      50       0       0       0       0       0       000010000D0000099
     110       0       0       1       0                               0D0000100
     110      51       0       0       0       0       0       000010000D0000101
     110       0       0       1       0                               0D0000102
     110      52       0       0       0       0       0       000010000D0000103
     110       0       0       1       0                               0D0000104
     110      53       0       0       0       0       0       000010000D0000105
     110       0       0       1       0                               0D0000106
     144      54       0       0       0       0       0       000020000D0000107
     144       0       0       1       0                               0D0000108
     108      55       0       0       0       0       0       000010000D0000109
     108       0       0       1       0                               0D0000110
     142      56       0       0       0       0       0       000010500D0000111
     142       0       0       1       0                               0D0000112
     102      57       0       0       0       0       0       000010000D0000113
     102       0       0       1       0                               0D0000114
     110      58       0       0       0       0       0       000010000D0000115
     110       0       0       1       0                               0D0000116
     110      59       0       0       0       0       0       000010000D0000117
     110       0       0       1       0                               0D0000118
     110      60       0       0       0       0       0       000010000D0000119
     110       0       0       1       0                               0D0000120
     110      61       0       0       0       0       0       000010000D0000121
     110       0       0       1       0                               0D0000122
     144      62       0       0       0       0       0       000020000D0000123
     144       0       0       1       0                               0D0000124
     108      63       0       0       0       0       0       000010000D0000125
     108       0       0       1       0                               0D0000126
     142      64       0       0       0       0       0       000010500D0000127
     142       0       0       1       0                               0D0000128
     102      65       0       0       0       0       0       000010000D0000129
     102       0       0       1       0                               0D0000130
     110      66       0       0       0       0       0       000010000D0000131
     110       0       0       1       0                               0D0000132
     110      67       0       0       0       0       0       000010000D0000133
     110       0       0       1       0                               0D0000134
     110      68       0       0       0       0       0       000010000D0000135
     110       0       0       1       0                               0D0000136
     110      69       0       0       0       0       0       000010000D0000137
     110       0       0       1       0                               0D0000138
402,8,3,19,39,55,75,91,107,123;                                  0000001P0000001
144,5,1,0,7;                                                     0000003P0000002
108,-1.,-0.,0.,0.,0,0.,0.,0.,0.;                                 0000005P0000003
142,0,5,0,9,2;                                                   0000007P0000004
102,4,11,13,15,17;                                               0000009P0000005
110,0.,12.,0.,0.,0.,0.;                                          0000011P0000006
110,0.,0.,0.,0.,0.,6.;                                           0000013P0000007
110,0.,0.,6.,0.,12.,6.;                                          0000015P0000008
110,0.,12.,6.,0.,12.,0.;                                         0000017P0000009
144,21,1,0,23;                                                   0000019P0000010
108,0.,-1.,-0.,0.,0,0.,0.,0.,0.;                                 0000021P0000011
142,0,21,0,25,2;                                                 0000023P0000012
102,6,27,29,31,33,35,37;                                         0000025P0000013
110,0.,0.,6.,0.,0.,0.;                                           0000027P0000014
110,0.,0.,0.,12.,0.,0.;                                          0000029P0000015
110,12.,0.,0.,12.,0.,3.;                                         0000031P0000016
110,12.,0.,3.,20.,0.,3.;                                         0000033P0000017
110,20.,0.,3.,20.,0.,6.;                                         0000035P0000018
110,20.,0.,6.,0.,0.,6.;                                          0000037P0000019
144,41,1,0,43;                                                   0000039P0000020
108,0.,0.,1.,6.,0,0.,0.,6.,0.;                                   0000041P0000021
142,0,41,0,45,2;                                                 0000043P0000022
102,4,47,49,51,53;                                               0000045P0000023
110,0.,12.,6.,0.,0.,6.;                                          0000047P0000024
110,0.,0.,6.,20.,0.,6.;                                          0000049P0000025
110,20.,0.,6.,20.,12.,6.;                                        0000051P0000026
110,20.,12.,6.,0.,12.,6.;                                        0000053P0000027
144,57,1,0,59;                                                   0000055P0000028
108,-0.,1.,0.,12.,0,0.,12.,0.,0.;                                0000057P0000029
142,0,57,0,61,2;                                                 0000059P0000030
102,6,63,65,67,69,71,73;                                         0000061P0000031
110,12.,12.,0.,0.,12.,0.;                                        0000063P0000032
110,0.,12.,0.,0.,12.,6.;                                         0000065P0000033
110,0.,12.,6.,20.,12.,6.;                                        0000067P0000034
110,20.,12.,6.,20.,12.,3.;                                       0000069P0000035
110,20.,12.,3.,12.,12.,3.;                                       0000071P0000036
110,12.,12.,3.,12.,12.,0.;                                       0000073P0000037
144,77,1,0,79;                                                   0000075P0000038
108,-0.,-0.,-1.,-0.,0,0.,0.,0.,0.;                               0000077P0000039
142,0,77,0,81,2;                                                 0000079P0000040
102,4,83,85,87,89;                                               0000081P0000041
110,0.,0.,0.,0.,12.,0.;                                          0000083P0000042
110,0.,12.,0.,12.,12.,0.;                                        0000085P0000043
110,12.,12.,0.,12.,0.,0.;                                        0000087P0000044
110,12.,0.,0.,0.,0.,0.;                                          0000089P0000045
144,93,1,0,95;                                                   0000091P0000046
108,1.,0.,-0.,12.,0,12.,0.,0.,0.;                                0000093P0000047
142,0,93,0,97,2;                                                 0000095P0000048
102,4,99,101,103,105;                                            0000097P0000049
110,12.,0.,3.,12.,0.,0.;                                         0000099P0000050
110,12.,0.,0.,12.,12.,0.;                                        0000101P0000051
110,12.,12.,0.,12.,12.,3.;                                       0000103P0000052
110,12.,12.,3.,12.,0.,3.;                                        0000105P0000053
144,109,1,0,111;                                                 0000107P0000054
108,-0.,-0.,-1.,-3.,0,12.,0.,3.,0.;                              0000109P0000055
142,0,109,0,113,2;                                               0000111P0000056
102,4,115,117,119,121;                                           0000113P0000057
110,20.,0.,3.,12.,0.,3.;                                         0000115P0000058
110,12.,0.,3.,12.,12.,3.;                                        0000117P0000059
110,12.,12.,3.,20.,12.,3.;                                       0000119P0000060
110,20.,12.,3.,20.,0.,3.;                                        0000121P0000061
144,125,1,0,127;                                                 0000123P0000062
108,1.,0.,-0.,20.,0,20.,0.,0.,0.;                                0000125P0000063
142,0,125,0,129,2;                                               0000127P0000064
102,4,131,133,135,137;                                           0000129P0000065
110,20.,0.,6.,20.,0.,3.;                                         0000131P0000066
110,20.,0.,3.,20.,12.,3.;                                        0000133P0000067
110,20.,12.,3.,20.,12.,6.;                                       0000135P0000068
110,20.,12.,6.,20.,0.,6.;                                        0000137P0000069
S      1G      4D    138P     69                                        T0000001
